<?xml version="1.0" standalone="no"?><!DOCTYPE svg PUBLIC "-//W3C//DTD SVG 1.1//EN" "http://www.w3.org/Graphics/SVG/1.1/DTD/svg11.dtd"><svg t="1524723910202" class="icon" style="" viewBox="0 0 1024 1024" version="1.1" xmlns="http://www.w3.org/2000/svg" p-id="2533" xmlns:xlink="http://www.w3.org/1999/xlink" width="200" height="200"><defs><style type="text/css"></style></defs><path d="M513.46384 60.225663c-248.291946 0-449.584462 201.299679-449.584462 449.624371 0 248.296039 201.292516 449.594695 449.584462 449.594695 248.28069 0 449.63665-201.299679 449.63665-449.594695C963.099467 261.525342 761.744529 60.225663 513.46384 60.225663zM473.683834 304.175721c2.690272-35.478026 40.597627-32.423457 40.597627-32.423457s34.488489-2.288113 39.011502 32.225959c0 0 8.162914 181.774997-15.904225 294.366308 0 0-3.746324 14.944364-23.107277 16.22145l0 0.275269c-20.751626-0.539282-24.692379-16.296151-24.692379-16.296151C465.521944 485.947647 473.683834 304.175721 473.683834 304.175721zM513.489422 747.984642c-25.719778 0-46.560432-20.840654-46.560432-46.560432 0-25.710568 20.840654-46.556339 46.560432-46.556339s46.561455 20.845771 46.561455 46.556339C560.050878 727.143988 539.2092 747.984642 513.489422 747.984642z" p-id="2534" fill="#1296db"></path></svg>